<svg width="42" height="42" viewBox="0 0 42 42" fill="none" xmlns="http://www.w3.org/2000/svg">
<path fill-rule="evenodd" clip-rule="evenodd" d="M20.6754 37.785C16.0445 37.716 11.6248 35.836 8.36317 32.5479C6.76873 30.9411 5.51156 29.0318 4.66558 26.9321C3.8196 24.8325 3.40186 22.585 3.43693 20.3216C3.54355 15.8035 5.43595 11.5116 8.69983 8.38559C12.0041 5.21986 16.3999 3.44725 20.9759 3.4353H21.2782C25.478 3.45534 29.5229 5.0234 32.6388 7.83938L28.2674 11.8175C26.3138 10.0782 23.7874 9.12046 21.1718 9.12762C18.1052 9.11637 15.1537 10.2942 12.9373 12.4135C11.8532 13.4493 10.9847 14.6893 10.3819 16.0622C9.779 17.435 9.4537 18.9135 9.42469 20.4126C9.40117 21.9113 9.67473 23.3998 10.2296 24.7922C10.7844 26.1846 11.6095 27.4533 12.6573 28.5251C14.8003 30.7164 17.7096 31.991 20.7733 32.0807H21.0189C23.4408 32.2044 25.8283 31.4726 27.747 30.0195C29.6562 28.5809 30.9812 26.5007 31.4777 24.1623L31.5516 23.9613H20.9897V18.1041H37.6132C37.742 19.1639 37.8004 20.2306 37.7849 21.2972C37.6149 31.1583 30.8851 37.7868 21.0446 37.7868L20.6754 37.785Z" fill="white"/>
</svg>
